<mxfile host="app.diagrams.net" modified="2023-10-25T17:18:48.214Z" agent="Mozilla/5.0 (Windows NT 10.0; Win64; x64) AppleWebKit/537.36 (KHTML, like Gecko) Chrome/118.0.0.0 Safari/537.36" etag="3Ek3bQb5TWj8OFY754rZ" version="22.0.8" type="github">
  <diagram name="Page-1" id="H2c29JP2JWiowa3AiWOg">
    <mxGraphModel dx="2261" dy="758" grid="1" gridSize="10" guides="1" tooltips="1" connect="1" arrows="1" fold="1" page="1" pageScale="1" pageWidth="827" pageHeight="1169" math="0" shadow="0">
      <root>
        <mxCell id="0" />
        <mxCell id="1" parent="0" />
        <mxCell id="REdWLembcpuqLBjRhoRA-4" style="edgeStyle=orthogonalEdgeStyle;rounded=0;orthogonalLoop=1;jettySize=auto;html=1;startArrow=classic;startFill=1;" parent="1" source="REdWLembcpuqLBjRhoRA-1" target="REdWLembcpuqLBjRhoRA-3" edge="1">
          <mxGeometry relative="1" as="geometry" />
        </mxCell>
        <mxCell id="REdWLembcpuqLBjRhoRA-1" value="SilentGlade" style="rounded=0;whiteSpace=wrap;html=1;" parent="1" vertex="1">
          <mxGeometry x="-650" y="651" width="120" height="60" as="geometry" />
        </mxCell>
        <mxCell id="REdWLembcpuqLBjRhoRA-6" style="edgeStyle=orthogonalEdgeStyle;rounded=0;orthogonalLoop=1;jettySize=auto;html=1;startArrow=classic;startFill=1;" parent="1" source="REdWLembcpuqLBjRhoRA-3" target="REdWLembcpuqLBjRhoRA-5" edge="1">
          <mxGeometry relative="1" as="geometry" />
        </mxCell>
        <mxCell id="REdWLembcpuqLBjRhoRA-39" style="edgeStyle=orthogonalEdgeStyle;rounded=0;orthogonalLoop=1;jettySize=auto;html=1;startArrow=classic;startFill=1;" parent="1" source="REdWLembcpuqLBjRhoRA-3" target="REdWLembcpuqLBjRhoRA-37" edge="1">
          <mxGeometry relative="1" as="geometry" />
        </mxCell>
        <mxCell id="REdWLembcpuqLBjRhoRA-3" value="SmallPathBetweenTrees" style="rounded=0;whiteSpace=wrap;html=1;" parent="1" vertex="1">
          <mxGeometry x="-490" y="651" width="160" height="60" as="geometry" />
        </mxCell>
        <mxCell id="REdWLembcpuqLBjRhoRA-8" style="edgeStyle=orthogonalEdgeStyle;rounded=0;orthogonalLoop=1;jettySize=auto;html=1;startArrow=classic;startFill=1;" parent="1" source="REdWLembcpuqLBjRhoRA-5" target="REdWLembcpuqLBjRhoRA-7" edge="1">
          <mxGeometry relative="1" as="geometry" />
        </mxCell>
        <mxCell id="REdWLembcpuqLBjRhoRA-5" value="PathWithBeach" style="rounded=0;whiteSpace=wrap;html=1;" parent="1" vertex="1">
          <mxGeometry x="-275" y="651" width="120" height="60" as="geometry" />
        </mxCell>
        <mxCell id="REdWLembcpuqLBjRhoRA-10" style="edgeStyle=orthogonalEdgeStyle;rounded=0;orthogonalLoop=1;jettySize=auto;html=1;entryX=0;entryY=0.5;entryDx=0;entryDy=0;startArrow=classic;startFill=1;" parent="1" source="REdWLembcpuqLBjRhoRA-7" target="REdWLembcpuqLBjRhoRA-9" edge="1">
          <mxGeometry relative="1" as="geometry" />
        </mxCell>
        <mxCell id="REdWLembcpuqLBjRhoRA-7" value="CrossroadsByTheForest" style="rounded=0;whiteSpace=wrap;html=1;" parent="1" vertex="1">
          <mxGeometry x="-290" y="411" width="150" height="60" as="geometry" />
        </mxCell>
        <mxCell id="REdWLembcpuqLBjRhoRA-12" style="edgeStyle=orthogonalEdgeStyle;rounded=0;orthogonalLoop=1;jettySize=auto;html=1;startArrow=classic;startFill=1;" parent="1" source="REdWLembcpuqLBjRhoRA-9" target="REdWLembcpuqLBjRhoRA-11" edge="1">
          <mxGeometry relative="1" as="geometry" />
        </mxCell>
        <mxCell id="REdWLembcpuqLBjRhoRA-14" style="edgeStyle=orthogonalEdgeStyle;rounded=0;orthogonalLoop=1;jettySize=auto;html=1;startArrow=classic;startFill=1;" parent="1" source="REdWLembcpuqLBjRhoRA-9" target="REdWLembcpuqLBjRhoRA-13" edge="1">
          <mxGeometry relative="1" as="geometry" />
        </mxCell>
        <mxCell id="REdWLembcpuqLBjRhoRA-20" style="edgeStyle=orthogonalEdgeStyle;rounded=0;orthogonalLoop=1;jettySize=auto;html=1;startArrow=classic;startFill=1;" parent="1" source="REdWLembcpuqLBjRhoRA-9" target="REdWLembcpuqLBjRhoRA-19" edge="1">
          <mxGeometry relative="1" as="geometry" />
        </mxCell>
        <mxCell id="REdWLembcpuqLBjRhoRA-9" value="AbandonedVillageSquare" style="rounded=0;whiteSpace=wrap;html=1;" parent="1" vertex="1">
          <mxGeometry x="-30" y="411" width="170" height="60" as="geometry" />
        </mxCell>
        <mxCell id="REdWLembcpuqLBjRhoRA-11" value="RoadWithPlots" style="rounded=0;whiteSpace=wrap;html=1;" parent="1" vertex="1">
          <mxGeometry x="-5" y="280" width="120" height="60" as="geometry" />
        </mxCell>
        <mxCell id="REdWLembcpuqLBjRhoRA-16" style="edgeStyle=orthogonalEdgeStyle;rounded=0;orthogonalLoop=1;jettySize=auto;html=1;startArrow=classic;startFill=1;" parent="1" source="REdWLembcpuqLBjRhoRA-13" target="REdWLembcpuqLBjRhoRA-15" edge="1">
          <mxGeometry relative="1" as="geometry" />
        </mxCell>
        <mxCell id="REdWLembcpuqLBjRhoRA-13" value="CrossroadsByTheFields" style="rounded=0;whiteSpace=wrap;html=1;" parent="1" vertex="1">
          <mxGeometry x="332.5" y="411" width="150" height="60" as="geometry" />
        </mxCell>
        <mxCell id="REdWLembcpuqLBjRhoRA-29" style="edgeStyle=orthogonalEdgeStyle;rounded=0;orthogonalLoop=1;jettySize=auto;html=1;startArrow=classic;startFill=1;" parent="1" source="REdWLembcpuqLBjRhoRA-15" target="REdWLembcpuqLBjRhoRA-27" edge="1">
          <mxGeometry relative="1" as="geometry" />
        </mxCell>
        <mxCell id="REdWLembcpuqLBjRhoRA-15" value="BeachByTheCrossroads" style="rounded=0;whiteSpace=wrap;html=1;" parent="1" vertex="1">
          <mxGeometry x="320" y="511" width="175" height="60" as="geometry" />
        </mxCell>
        <mxCell id="REdWLembcpuqLBjRhoRA-18" style="edgeStyle=orthogonalEdgeStyle;rounded=0;orthogonalLoop=1;jettySize=auto;html=1;startArrow=classic;startFill=1;" parent="1" source="REdWLembcpuqLBjRhoRA-17" target="REdWLembcpuqLBjRhoRA-11" edge="1">
          <mxGeometry relative="1" as="geometry" />
        </mxCell>
        <mxCell id="REdWLembcpuqLBjRhoRA-17" value="PartyPlot" style="ellipse;whiteSpace=wrap;html=1;" parent="1" vertex="1">
          <mxGeometry x="-176" y="270" width="120" height="80" as="geometry" />
        </mxCell>
        <mxCell id="REdWLembcpuqLBjRhoRA-19" value="VillageHouse1 - 5" style="rounded=0;whiteSpace=wrap;html=1;" parent="1" vertex="1">
          <mxGeometry x="-10" y="511" width="130" height="60" as="geometry" />
        </mxCell>
        <mxCell id="REdWLembcpuqLBjRhoRA-22" style="edgeStyle=orthogonalEdgeStyle;rounded=0;orthogonalLoop=1;jettySize=auto;html=1;startArrow=classic;startFill=1;" parent="1" source="REdWLembcpuqLBjRhoRA-21" target="REdWLembcpuqLBjRhoRA-13" edge="1">
          <mxGeometry relative="1" as="geometry" />
        </mxCell>
        <mxCell id="REdWLembcpuqLBjRhoRA-25" style="edgeStyle=orthogonalEdgeStyle;rounded=0;orthogonalLoop=1;jettySize=auto;html=1;startArrow=classic;startFill=1;" parent="1" source="REdWLembcpuqLBjRhoRA-21" target="REdWLembcpuqLBjRhoRA-23" edge="1">
          <mxGeometry relative="1" as="geometry" />
        </mxCell>
        <mxCell id="REdWLembcpuqLBjRhoRA-21" value="Fields" style="rounded=0;whiteSpace=wrap;html=1;" parent="1" vertex="1">
          <mxGeometry x="347.5" y="280" width="120" height="60" as="geometry" />
        </mxCell>
        <mxCell id="REdWLembcpuqLBjRhoRA-23" value="SecludedPartInTheFields" style="ellipse;whiteSpace=wrap;html=1;" parent="1" vertex="1">
          <mxGeometry x="140" y="270" width="155" height="80" as="geometry" />
        </mxCell>
        <mxCell id="REdWLembcpuqLBjRhoRA-32" style="edgeStyle=orthogonalEdgeStyle;rounded=0;orthogonalLoop=1;jettySize=auto;html=1;startArrow=classic;startFill=1;" parent="1" source="REdWLembcpuqLBjRhoRA-26" target="REdWLembcpuqLBjRhoRA-13" edge="1">
          <mxGeometry relative="1" as="geometry" />
        </mxCell>
        <mxCell id="REdWLembcpuqLBjRhoRA-35" style="edgeStyle=orthogonalEdgeStyle;rounded=0;orthogonalLoop=1;jettySize=auto;html=1;startArrow=classic;startFill=1;" parent="1" source="REdWLembcpuqLBjRhoRA-26" target="REdWLembcpuqLBjRhoRA-33" edge="1">
          <mxGeometry relative="1" as="geometry" />
        </mxCell>
        <mxCell id="h2sVZvTT7wcQvpUDS5gU-18" style="edgeStyle=orthogonalEdgeStyle;rounded=0;orthogonalLoop=1;jettySize=auto;html=1;startArrow=classic;startFill=1;" parent="1" source="REdWLembcpuqLBjRhoRA-26" target="h2sVZvTT7wcQvpUDS5gU-17" edge="1">
          <mxGeometry relative="1" as="geometry" />
        </mxCell>
        <mxCell id="REdWLembcpuqLBjRhoRA-26" value="RoadAtTheFootOfAMountain" style="rounded=0;whiteSpace=wrap;html=1;" parent="1" vertex="1">
          <mxGeometry x="680" y="411" width="200" height="60" as="geometry" />
        </mxCell>
        <mxCell id="REdWLembcpuqLBjRhoRA-30" style="edgeStyle=orthogonalEdgeStyle;rounded=0;orthogonalLoop=1;jettySize=auto;html=1;startArrow=classic;startFill=1;" parent="1" source="REdWLembcpuqLBjRhoRA-27" target="REdWLembcpuqLBjRhoRA-28" edge="1">
          <mxGeometry relative="1" as="geometry" />
        </mxCell>
        <mxCell id="REdWLembcpuqLBjRhoRA-27" value="Beach" style="rounded=0;whiteSpace=wrap;html=1;" parent="1" vertex="1">
          <mxGeometry x="530" y="511" width="120" height="60" as="geometry" />
        </mxCell>
        <mxCell id="REdWLembcpuqLBjRhoRA-31" style="edgeStyle=orthogonalEdgeStyle;rounded=0;orthogonalLoop=1;jettySize=auto;html=1;startArrow=classic;startFill=1;" parent="1" source="REdWLembcpuqLBjRhoRA-28" target="REdWLembcpuqLBjRhoRA-26" edge="1">
          <mxGeometry relative="1" as="geometry" />
        </mxCell>
        <mxCell id="REdWLembcpuqLBjRhoRA-28" value="BeachAtTheFootOfAMountan" style="rounded=0;whiteSpace=wrap;html=1;" parent="1" vertex="1">
          <mxGeometry x="690" y="511" width="180" height="60" as="geometry" />
        </mxCell>
        <mxCell id="REdWLembcpuqLBjRhoRA-36" style="edgeStyle=orthogonalEdgeStyle;rounded=0;orthogonalLoop=1;jettySize=auto;html=1;startArrow=classic;startFill=1;" parent="1" source="REdWLembcpuqLBjRhoRA-33" target="REdWLembcpuqLBjRhoRA-34" edge="1">
          <mxGeometry relative="1" as="geometry" />
        </mxCell>
        <mxCell id="REdWLembcpuqLBjRhoRA-33" value="RoadUpTheMountain" style="rounded=0;whiteSpace=wrap;html=1;" parent="1" vertex="1">
          <mxGeometry x="720" y="280" width="120" height="60" as="geometry" />
        </mxCell>
        <mxCell id="h2sVZvTT7wcQvpUDS5gU-19" style="edgeStyle=orthogonalEdgeStyle;rounded=0;orthogonalLoop=1;jettySize=auto;html=1;startArrow=classic;startFill=1;" parent="1" source="REdWLembcpuqLBjRhoRA-34" target="h2sVZvTT7wcQvpUDS5gU-1" edge="1">
          <mxGeometry relative="1" as="geometry" />
        </mxCell>
        <mxCell id="REdWLembcpuqLBjRhoRA-34" value="MineEntrance" style="rounded=0;whiteSpace=wrap;html=1;" parent="1" vertex="1">
          <mxGeometry x="930" y="280" width="120" height="60" as="geometry" />
        </mxCell>
        <mxCell id="REdWLembcpuqLBjRhoRA-40" style="edgeStyle=orthogonalEdgeStyle;rounded=0;orthogonalLoop=1;jettySize=auto;html=1;startArrow=classic;startFill=1;" parent="1" source="REdWLembcpuqLBjRhoRA-37" target="REdWLembcpuqLBjRhoRA-38" edge="1">
          <mxGeometry relative="1" as="geometry" />
        </mxCell>
        <mxCell id="REdWLembcpuqLBjRhoRA-43" style="edgeStyle=orthogonalEdgeStyle;rounded=0;orthogonalLoop=1;jettySize=auto;html=1;startArrow=classic;startFill=1;" parent="1" source="REdWLembcpuqLBjRhoRA-37" target="REdWLembcpuqLBjRhoRA-42" edge="1">
          <mxGeometry relative="1" as="geometry" />
        </mxCell>
        <mxCell id="REdWLembcpuqLBjRhoRA-37" value="Forest1" style="rounded=0;whiteSpace=wrap;html=1;" parent="1" vertex="1">
          <mxGeometry x="-470" y="531" width="120" height="60" as="geometry" />
        </mxCell>
        <mxCell id="REdWLembcpuqLBjRhoRA-45" style="edgeStyle=orthogonalEdgeStyle;rounded=0;orthogonalLoop=1;jettySize=auto;html=1;startArrow=classic;startFill=1;" parent="1" source="REdWLembcpuqLBjRhoRA-38" target="REdWLembcpuqLBjRhoRA-7" edge="1">
          <mxGeometry relative="1" as="geometry" />
        </mxCell>
        <mxCell id="REdWLembcpuqLBjRhoRA-46" style="edgeStyle=orthogonalEdgeStyle;rounded=0;orthogonalLoop=1;jettySize=auto;html=1;startArrow=classic;startFill=1;" parent="1" source="REdWLembcpuqLBjRhoRA-38" target="REdWLembcpuqLBjRhoRA-41" edge="1">
          <mxGeometry relative="1" as="geometry" />
        </mxCell>
        <mxCell id="REdWLembcpuqLBjRhoRA-38" value="PathByTheForest" style="rounded=0;whiteSpace=wrap;html=1;" parent="1" vertex="1">
          <mxGeometry x="-470" y="411" width="120" height="60" as="geometry" />
        </mxCell>
        <mxCell id="REdWLembcpuqLBjRhoRA-41" value="LumberjacksRetreat" style="rounded=0;whiteSpace=wrap;html=1;" parent="1" vertex="1">
          <mxGeometry x="-650" y="411" width="120" height="60" as="geometry" />
        </mxCell>
        <mxCell id="REdWLembcpuqLBjRhoRA-44" style="edgeStyle=orthogonalEdgeStyle;rounded=0;orthogonalLoop=1;jettySize=auto;html=1;startArrow=classic;startFill=1;" parent="1" source="REdWLembcpuqLBjRhoRA-42" target="REdWLembcpuqLBjRhoRA-41" edge="1">
          <mxGeometry relative="1" as="geometry" />
        </mxCell>
        <mxCell id="REdWLembcpuqLBjRhoRA-42" value="Forest2" style="rounded=0;whiteSpace=wrap;html=1;" parent="1" vertex="1">
          <mxGeometry x="-650" y="531" width="120" height="60" as="geometry" />
        </mxCell>
        <mxCell id="h2sVZvTT7wcQvpUDS5gU-20" style="edgeStyle=orthogonalEdgeStyle;rounded=0;orthogonalLoop=1;jettySize=auto;html=1;startArrow=classic;startFill=1;" parent="1" source="h2sVZvTT7wcQvpUDS5gU-1" target="h2sVZvTT7wcQvpUDS5gU-3" edge="1">
          <mxGeometry relative="1" as="geometry" />
        </mxCell>
        <mxCell id="h2sVZvTT7wcQvpUDS5gU-21" style="edgeStyle=orthogonalEdgeStyle;rounded=0;orthogonalLoop=1;jettySize=auto;html=1;startArrow=classic;startFill=1;" parent="1" source="h2sVZvTT7wcQvpUDS5gU-1" target="h2sVZvTT7wcQvpUDS5gU-7" edge="1">
          <mxGeometry relative="1" as="geometry" />
        </mxCell>
        <mxCell id="h2sVZvTT7wcQvpUDS5gU-22" style="edgeStyle=orthogonalEdgeStyle;rounded=0;orthogonalLoop=1;jettySize=auto;html=1;startArrow=classic;startFill=1;" parent="1" source="h2sVZvTT7wcQvpUDS5gU-1" target="h2sVZvTT7wcQvpUDS5gU-10" edge="1">
          <mxGeometry relative="1" as="geometry" />
        </mxCell>
        <mxCell id="h2sVZvTT7wcQvpUDS5gU-1" value="MineTunnel" style="shape=hexagon;perimeter=hexagonPerimeter2;whiteSpace=wrap;html=1;fixedSize=1;" parent="1" vertex="1">
          <mxGeometry x="1140" y="270" width="120" height="80" as="geometry" />
        </mxCell>
        <mxCell id="h2sVZvTT7wcQvpUDS5gU-3" value="IronMine" style="shape=hexagon;perimeter=hexagonPerimeter2;whiteSpace=wrap;html=1;fixedSize=1;" parent="1" vertex="1">
          <mxGeometry x="1330" y="270" width="120" height="80" as="geometry" />
        </mxCell>
        <mxCell id="h2sVZvTT7wcQvpUDS5gU-7" value="CopperMine" style="shape=hexagon;perimeter=hexagonPerimeter2;whiteSpace=wrap;html=1;fixedSize=1;" parent="1" vertex="1">
          <mxGeometry x="1140" y="401" width="120" height="80" as="geometry" />
        </mxCell>
        <mxCell id="h2sVZvTT7wcQvpUDS5gU-10" value="GoblinMineEntrance" style="shape=trapezoid;perimeter=trapezoidPerimeter;whiteSpace=wrap;html=1;fixedSize=1;" parent="1" vertex="1">
          <mxGeometry x="1120" y="90" width="160" height="60" as="geometry" />
        </mxCell>
        <mxCell id="h2sVZvTT7wcQvpUDS5gU-13" value="&lt;h1&gt;Legend&lt;/h1&gt;&lt;p&gt;Nonpersistent Map&lt;/p&gt;&lt;p&gt;&lt;br&gt;&lt;/p&gt;&lt;p&gt;&lt;br&gt;&lt;/p&gt;&lt;p&gt;&lt;br&gt;&lt;/p&gt;&lt;p&gt;Persistent, Instanced Map&lt;/p&gt;&lt;p&gt;&lt;br&gt;&lt;/p&gt;&lt;p&gt;&lt;br&gt;&lt;/p&gt;&lt;p&gt;&lt;br&gt;&lt;/p&gt;&lt;p&gt;Nonpersistent Map&lt;/p&gt;" style="text;html=1;strokeColor=none;fillColor=none;spacing=5;spacingTop=-20;whiteSpace=wrap;overflow=hidden;rounded=0;" parent="1" vertex="1">
          <mxGeometry x="1137.5" y="540" width="335" height="310" as="geometry" />
        </mxCell>
        <mxCell id="h2sVZvTT7wcQvpUDS5gU-14" value="" style="rounded=0;whiteSpace=wrap;html=1;" parent="1" vertex="1">
          <mxGeometry x="967.5" y="570" width="120" height="60" as="geometry" />
        </mxCell>
        <mxCell id="h2sVZvTT7wcQvpUDS5gU-15" value="" style="ellipse;whiteSpace=wrap;html=1;" parent="1" vertex="1">
          <mxGeometry x="967.5" y="650" width="120" height="80" as="geometry" />
        </mxCell>
        <mxCell id="h2sVZvTT7wcQvpUDS5gU-16" value="" style="shape=hexagon;perimeter=hexagonPerimeter2;whiteSpace=wrap;html=1;fixedSize=1;" parent="1" vertex="1">
          <mxGeometry x="967.5" y="760" width="120" height="80" as="geometry" />
        </mxCell>
        <mxCell id="h2sVZvTT7wcQvpUDS5gU-17" value="StoneQuary" style="rounded=0;whiteSpace=wrap;html=1;" parent="1" vertex="1">
          <mxGeometry x="930" y="411" width="120" height="60" as="geometry" />
        </mxCell>
        <mxCell id="h2sVZvTT7wcQvpUDS5gU-23" value="PersistencePool: Mine" style="swimlane;startSize=20;horizontal=1;containerType=tree;" parent="1" vertex="1">
          <mxGeometry x="1120" y="210" width="350" height="290" as="geometry" />
        </mxCell>
        <mxCell id="h2sVZvTT7wcQvpUDS5gU-27" value="PersistencePool: GoblinDungeon" style="swimlane;startSize=20;horizontal=1;containerType=tree;" parent="1" vertex="1">
          <mxGeometry x="1110" y="50" width="220" height="150" as="geometry" />
        </mxCell>
      </root>
    </mxGraphModel>
  </diagram>
</mxfile>
